<svg xmlns="http://www.w3.org/2000/svg" xmlns:xlink="http://www.w3.org/1999/xlink" width="500" zoomAndPan="magnify" viewBox="0 0 375 374.999991" height="500" preserveAspectRatio="xMidYMid meet" version="1.0"><defs><g/><clipPath id="2a5ae81416"><path d="M 279 209 L 353 209 L 353 242 L 279 242 Z M 279 209 " clip-rule="nonzero"/></clipPath><clipPath id="f8d6bbaf6c"><path d="M 259.082031 227.066406 L 349.015625 189.410156 L 367.554688 233.6875 L 277.617188 271.34375 Z M 259.082031 227.066406 " clip-rule="nonzero"/></clipPath><clipPath id="dac3f91c63"><path d="M 277.5625 271.210938 L 367.5 233.558594 L 348.960938 189.28125 L 259.027344 226.9375 Z M 277.5625 271.210938 " clip-rule="nonzero"/></clipPath><clipPath id="b9e179235a"><path d="M 277.5625 271.210938 L 367.5 233.558594 L 348.960938 189.28125 L 259.027344 226.9375 Z M 277.5625 271.210938 " clip-rule="nonzero"/></clipPath><clipPath id="0570ebd388"><path d="M 262 224 L 285 224 L 285 247 L 262 247 Z M 262 224 " clip-rule="nonzero"/></clipPath><clipPath id="8389342879"><path d="M 259.082031 227.066406 L 349.015625 189.410156 L 367.554688 233.6875 L 277.617188 271.34375 Z M 259.082031 227.066406 " clip-rule="nonzero"/></clipPath><clipPath id="b29e3267ea"><path d="M 277.5625 271.210938 L 367.5 233.558594 L 348.960938 189.28125 L 259.027344 226.9375 Z M 277.5625 271.210938 " clip-rule="nonzero"/></clipPath><clipPath id="3febe8aaca"><path d="M 277.5625 271.210938 L 367.5 233.558594 L 348.960938 189.28125 L 259.027344 226.9375 Z M 277.5625 271.210938 " clip-rule="nonzero"/></clipPath><clipPath id="c04d0240d6"><path d="M 278 200 L 361 200 L 361 236 L 278 236 Z M 278 200 " clip-rule="nonzero"/></clipPath><clipPath id="2436c08764"><path d="M 259.082031 227.066406 L 349.015625 189.410156 L 367.554688 233.6875 L 277.617188 271.34375 Z M 259.082031 227.066406 " clip-rule="nonzero"/></clipPath><clipPath id="692af85cbe"><path d="M 277.5625 271.210938 L 367.5 233.558594 L 348.960938 189.28125 L 259.027344 226.9375 Z M 277.5625 271.210938 " clip-rule="nonzero"/></clipPath><clipPath id="b538a33580"><path d="M 277.5625 271.210938 L 367.5 233.558594 L 348.960938 189.28125 L 259.027344 226.9375 Z M 277.5625 271.210938 " clip-rule="nonzero"/></clipPath></defs><g clip-path="url(#2a5ae81416)"><g clip-path="url(#f8d6bbaf6c)"><g clip-path="url(#dac3f91c63)"><g clip-path="url(#b9e179235a)"><path fill="#ffffff" d="M 279.4375 233.679688 C 285.351562 227.347656 292.566406 222.0625 299.316406 218.375 C 308.792969 213.203125 319.742188 209.648438 329.996094 209.695312 C 337.488281 209.738281 345.675781 211.824219 350.011719 218.148438 C 350.613281 219.019531 351.125 219.964844 351.542969 220.960938 C 354.210938 227.332031 352.65625 234.515625 349.328125 241.097656 C 350.753906 236.050781 350.902344 230.871094 348.914062 226.128906 C 348.449219 225.015625 347.875 223.96875 347.207031 222.988281 C 342.578125 216.238281 334.054688 213.914062 326.019531 213.867188 C 315.664062 213.816406 304.636719 217.367188 295.0625 222.605469 C 289.710938 225.523438 284.300781 229.269531 279.4375 233.679688 " fill-opacity="1" fill-rule="evenodd"/></g></g></g></g><g clip-path="url(#0570ebd388)"><g clip-path="url(#8389342879)"><g clip-path="url(#b29e3267ea)"><g clip-path="url(#3febe8aaca)"><path fill="#ffffff" d="M 272.335938 246.613281 L 272.421875 246.617188 L 272.507812 246.628906 C 273.578125 236.566406 275.335938 236.011719 284.730469 237.039062 L 284.75 236.875 C 275.351562 235.84375 273.753906 234.933594 274.828125 224.867188 L 274.65625 224.84375 C 273.582031 234.910156 271.828125 235.460938 262.433594 234.4375 L 262.414062 234.605469 C 271.8125 235.632812 273.40625 236.542969 272.335938 246.613281 " fill-opacity="1" fill-rule="evenodd"/></g></g></g></g><g clip-path="url(#c04d0240d6)"><g clip-path="url(#2436c08764)"><g clip-path="url(#692af85cbe)"><g clip-path="url(#b538a33580)"><path fill="#ffffff" d="M 278.449219 229.171875 C 284.832031 221.921875 292.683594 215.800781 300.085938 211.46875 C 310.464844 205.386719 322.546875 201.066406 333.972656 200.78125 C 342.320312 200.582031 351.507812 202.632812 356.546875 209.53125 C 357.242188 210.484375 357.84375 211.519531 358.34375 212.617188 C 361.519531 219.625 360.03125 227.679688 356.539062 235.117188 C 357.960938 229.449219 357.957031 223.675781 355.582031 218.457031 C 355.03125 217.238281 354.359375 216.085938 353.582031 215.019531 C 348.207031 207.65625 338.632812 205.34375 329.683594 205.558594 C 318.140625 205.84375 305.980469 210.164062 295.488281 216.3125 C 289.621094 219.746094 283.71875 224.101562 278.449219 229.171875 " fill-opacity="1" fill-rule="evenodd"/></g></g></g></g><path fill="#ffffff" d="M 191.074219 163.050781 C 165.039062 172.527344 141.011719 179.535156 123.609375 183.089844 C 107.59375 186.347656 97.199219 186.703125 95.980469 183.359375 C 94.808594 180.136719 102.382812 174.054688 115.789062 166.652344 C 117.125 165.914062 117.882812 164.429688 117.675781 162.917969 C 117.671875 162.894531 117.667969 162.867188 117.664062 162.84375 C 117.324219 160.328125 114.636719 158.875 112.359375 159.992188 C 77.777344 176.929688 56.347656 192.398438 59.160156 200.117188 C 62.039062 208.023438 89.648438 205.8125 128.507812 195.960938 C 129.914062 195.601562 131.410156 196.089844 132.316406 197.230469 C 150.660156 220.363281 182.410156 230.300781 211.675781 219.648438 C 248.664062 206.183594 257.308594 179.21875 258.164062 159.269531 C 258.660156 147.769531 254.894531 139.820312 191.074219 163.050781 Z M 191.074219 163.050781 " fill-opacity="1" fill-rule="nonzero"/><path fill="#ffffff" d="M 315.953125 106.652344 C 313.015625 98.578125 284.339844 101.050781 244.238281 111.417969 C 226.148438 86.945312 193.484375 76.179688 163.4375 87.117188 C 132.417969 98.40625 121.636719 120.050781 118.296875 137.742188 C 115.976562 150.054688 117.90625 161.078125 181.882812 137.792969 C 207.511719 128.464844 231.1875 121.53125 248.523438 117.929688 C 264.996094 114.503906 275.738281 114.082031 276.976562 117.484375 C 278.058594 120.464844 271.660156 125.890625 260.070312 132.558594 C 257.503906 134.035156 256.207031 137 256.78125 139.90625 C 256.789062 139.953125 256.796875 140 256.808594 140.046875 C 257.675781 144.515625 262.613281 146.875 266.679688 144.835938 C 298.949219 128.664062 318.65625 114.070312 315.953125 106.652344 Z M 315.953125 106.652344 " fill-opacity="1" fill-rule="nonzero"/><g fill="#ffffff" fill-opacity="1"><g transform="translate(11.800987, 285.466973)"><g><path d="M 44.21875 0 L 38.609375 0 L 38.609375 -21.203125 L 38.46875 -21.203125 L 25.890625 0 L 21.34375 0 L 8.671875 -21.203125 L 8.53125 -21.203125 L 8.53125 0 L 2.921875 0 L 2.921875 -26.171875 L 11.640625 -26.171875 L 23.671875 -5.9375 L 23.765625 -5.9375 L 35.640625 -26.171875 L 44.21875 -26.171875 Z M 44.21875 0 "/></g></g></g><g fill="#ffffff" fill-opacity="1"><g transform="translate(63.590849, 285.466973)"><g><path d="M 36.46875 0 L 30.03125 0 L 27.234375 -5.25 L 9.1875 -5.25 L 6.40625 0 L 0.140625 0 L 14.796875 -26.171875 L 22 -26.171875 Z M 25.203125 -9.328125 L 18.46875 -22.046875 L 18.1875 -22.046875 L 11.375 -9.328125 Z M 25.203125 -9.328125 "/></g></g></g><g fill="#ffffff" fill-opacity="1"><g transform="translate(104.846472, 285.466973)"><g><path d="M 20.890625 -12.8125 C 22.210938 -12.8125 23.300781 -12.867188 24.15625 -12.984375 C 25.007812 -13.109375 25.664062 -13.328125 26.125 -13.640625 C 26.59375 -13.953125 26.910156 -14.378906 27.078125 -14.921875 C 27.242188 -15.460938 27.328125 -16.132812 27.328125 -16.9375 L 27.328125 -17.546875 C 27.328125 -18.472656 27.25 -19.222656 27.09375 -19.796875 C 26.945312 -20.367188 26.632812 -20.804688 26.15625 -21.109375 C 25.675781 -21.421875 24.984375 -21.625 24.078125 -21.71875 C 23.179688 -21.8125 22.007812 -21.859375 20.5625 -21.859375 L 8.625 -21.859375 L 8.625 -12.8125 Z M 33.09375 0 L 27.375 0 L 27.375 -2.5 C 27.375 -3.832031 27.289062 -4.894531 27.125 -5.6875 C 26.957031 -6.476562 26.59375 -7.085938 26.03125 -7.515625 C 25.476562 -7.953125 24.660156 -8.238281 23.578125 -8.375 C 22.492188 -8.507812 21.039062 -8.578125 19.21875 -8.578125 L 8.625 -8.578125 L 8.625 0 L 2.921875 0 L 2.921875 -26.171875 L 22.734375 -26.171875 C 24.804688 -26.171875 26.515625 -26.054688 27.859375 -25.828125 C 29.210938 -25.597656 30.28125 -25.195312 31.0625 -24.625 C 31.851562 -24.050781 32.394531 -23.257812 32.6875 -22.25 C 32.988281 -21.25 33.140625 -19.988281 33.140625 -18.46875 L 33.140625 -17.5 C 33.140625 -15.457031 32.75 -13.941406 31.96875 -12.953125 C 31.195312 -11.960938 30.023438 -11.296875 28.453125 -10.953125 L 28.453125 -10.765625 C 29.378906 -10.609375 30.144531 -10.414062 30.75 -10.1875 C 31.351562 -9.957031 31.820312 -9.601562 32.15625 -9.125 C 32.5 -8.644531 32.738281 -8.023438 32.875 -7.265625 C 33.019531 -6.503906 33.09375 -5.519531 33.09375 -4.3125 Z M 33.09375 0 "/></g></g></g><g fill="#ffffff" fill-opacity="1"><g transform="translate(145.220366, 285.466973)"><g><path d="M 33.265625 -7.5625 C 33.265625 -5.957031 33.085938 -4.644531 32.734375 -3.625 C 32.378906 -2.601562 31.691406 -1.796875 30.671875 -1.203125 C 29.648438 -0.617188 28.203125 -0.21875 26.328125 0 C 24.460938 0.21875 22 0.328125 18.9375 0.328125 L 17.6875 0.328125 C 14.28125 0.328125 11.578125 0.234375 9.578125 0.046875 C 7.585938 -0.140625 6.070312 -0.519531 5.03125 -1.09375 C 4 -1.664062 3.332031 -2.46875 3.03125 -3.5 C 2.738281 -4.539062 2.59375 -5.894531 2.59375 -7.5625 L 2.59375 -8.359375 L 8.265625 -8.359375 L 8.265625 -7.75 C 8.265625 -6.914062 8.363281 -6.25 8.5625 -5.75 C 8.757812 -5.257812 9.175781 -4.878906 9.8125 -4.609375 C 10.445312 -4.347656 11.359375 -4.175781 12.546875 -4.09375 C 13.742188 -4.019531 15.332031 -3.984375 17.3125 -3.984375 L 18.328125 -3.984375 C 20.398438 -3.984375 22.054688 -4.03125 23.296875 -4.125 C 24.535156 -4.21875 25.476562 -4.394531 26.125 -4.65625 C 26.769531 -4.925781 27.1875 -5.273438 27.375 -5.703125 C 27.5625 -6.140625 27.65625 -6.695312 27.65625 -7.375 L 27.65625 -7.65625 C 27.65625 -8.394531 27.566406 -8.988281 27.390625 -9.4375 C 27.222656 -9.882812 26.816406 -10.238281 26.171875 -10.5 C 25.523438 -10.769531 24.554688 -10.953125 23.265625 -11.046875 C 21.984375 -11.140625 20.226562 -11.1875 18 -11.1875 C 14.570312 -11.1875 11.867188 -11.285156 9.890625 -11.484375 C 7.910156 -11.679688 6.410156 -12.039062 5.390625 -12.5625 C 4.367188 -13.09375 3.71875 -13.835938 3.4375 -14.796875 C 3.15625 -15.765625 3.015625 -17.019531 3.015625 -18.5625 L 3.015625 -18.890625 C 3.015625 -20.429688 3.179688 -21.695312 3.515625 -22.6875 C 3.859375 -23.675781 4.519531 -24.445312 5.5 -25 C 6.476562 -25.5625 7.847656 -25.953125 9.609375 -26.171875 C 11.367188 -26.390625 13.65625 -26.5 16.46875 -26.5 L 17.78125 -26.5 C 21.050781 -26.5 23.660156 -26.378906 25.609375 -26.140625 C 27.566406 -25.910156 29.054688 -25.507812 30.078125 -24.9375 C 31.097656 -24.363281 31.753906 -23.570312 32.046875 -22.5625 C 32.335938 -21.5625 32.484375 -20.304688 32.484375 -18.796875 L 32.484375 -18.09375 L 26.828125 -18.09375 L 26.828125 -18.515625 C 26.828125 -19.285156 26.738281 -19.914062 26.5625 -20.40625 C 26.394531 -20.90625 26.023438 -21.296875 25.453125 -21.578125 C 24.878906 -21.859375 24.050781 -22.046875 22.96875 -22.140625 C 21.882812 -22.234375 20.445312 -22.28125 18.65625 -22.28125 L 17.640625 -22.28125 C 15.628906 -22.28125 14.023438 -22.238281 12.828125 -22.15625 C 11.640625 -22.082031 10.734375 -21.921875 10.109375 -21.671875 C 9.492188 -21.421875 9.09375 -21.070312 8.90625 -20.625 C 8.71875 -20.175781 8.625 -19.597656 8.625 -18.890625 L 8.625 -18.609375 C 8.625 -17.960938 8.703125 -17.4375 8.859375 -17.03125 C 9.015625 -16.625 9.414062 -16.304688 10.0625 -16.078125 C 10.71875 -15.847656 11.707031 -15.691406 13.03125 -15.609375 C 14.363281 -15.535156 16.222656 -15.5 18.609375 -15.5 C 21.859375 -15.5 24.445312 -15.40625 26.375 -15.21875 C 28.3125 -15.03125 29.789062 -14.664062 30.8125 -14.125 C 31.832031 -13.582031 32.492188 -12.804688 32.796875 -11.796875 C 33.109375 -10.796875 33.265625 -9.476562 33.265625 -7.84375 Z M 33.265625 -7.5625 "/></g></g></g><g fill="#ffffff" fill-opacity="1"><g transform="translate(185.501461, 285.466973)"><g/></g></g><g fill="#ffffff" fill-opacity="1"><g transform="translate(202.950633, 285.466973)"><g><path d="M 18.65625 0.328125 C 15.15625 0.328125 12.332031 0.179688 10.1875 -0.109375 C 8.039062 -0.410156 6.378906 -1.023438 5.203125 -1.953125 C 4.023438 -2.878906 3.242188 -4.191406 2.859375 -5.890625 C 2.472656 -7.597656 2.28125 -9.875 2.28125 -12.71875 L 2.28125 -13.453125 C 2.28125 -15.335938 2.351562 -16.96875 2.5 -18.34375 C 2.65625 -19.726562 2.945312 -20.898438 3.375 -21.859375 C 3.8125 -22.816406 4.410156 -23.597656 5.171875 -24.203125 C 5.929688 -24.804688 6.914062 -25.273438 8.125 -25.609375 C 9.332031 -25.953125 10.800781 -26.1875 12.53125 -26.3125 C 14.257812 -26.4375 16.300781 -26.5 18.65625 -26.5 L 19.8125 -26.5 C 23 -26.5 25.554688 -26.378906 27.484375 -26.140625 C 29.421875 -25.910156 30.914062 -25.492188 31.96875 -24.890625 C 33.019531 -24.285156 33.71875 -23.441406 34.0625 -22.359375 C 34.40625 -21.285156 34.578125 -19.910156 34.578125 -18.234375 L 34.578125 -17.21875 L 29 -17.21875 L 29 -17.734375 C 29 -18.597656 28.914062 -19.316406 28.75 -19.890625 C 28.582031 -20.460938 28.179688 -20.898438 27.546875 -21.203125 C 26.910156 -21.515625 25.972656 -21.734375 24.734375 -21.859375 C 23.492188 -21.984375 21.789062 -22.046875 19.625 -22.046875 L 18.84375 -22.046875 C 16.363281 -22.046875 14.40625 -21.96875 12.96875 -21.8125 C 11.53125 -21.65625 10.445312 -21.28125 9.71875 -20.6875 C 8.988281 -20.101562 8.523438 -19.226562 8.328125 -18.0625 C 8.128906 -16.90625 8.03125 -15.320312 8.03125 -13.3125 L 8.03125 -12.859375 C 8.03125 -10.847656 8.128906 -9.269531 8.328125 -8.125 C 8.523438 -6.976562 8.988281 -6.117188 9.71875 -5.546875 C 10.445312 -4.972656 11.53125 -4.609375 12.96875 -4.453125 C 14.40625 -4.296875 16.363281 -4.21875 18.84375 -4.21875 L 19.625 -4.21875 C 21.820312 -4.21875 23.5625 -4.269531 24.84375 -4.375 C 26.132812 -4.488281 27.109375 -4.710938 27.765625 -5.046875 C 28.429688 -5.390625 28.859375 -5.851562 29.046875 -6.4375 C 29.234375 -7.03125 29.328125 -7.820312 29.328125 -8.8125 L 29.328125 -9.234375 L 34.84375 -9.234375 L 34.84375 -8.03125 C 34.84375 -6.382812 34.65625 -5.023438 34.28125 -3.953125 C 33.914062 -2.890625 33.191406 -2.039062 32.109375 -1.40625 C 31.023438 -0.78125 29.5 -0.332031 27.53125 -0.0625 C 25.570312 0.195312 23 0.328125 19.8125 0.328125 Z M 18.65625 0.328125 "/></g></g></g><g fill="#ffffff" fill-opacity="1"><g transform="translate(244.670319, 285.466973)"><g><path d="M 18.890625 0.328125 C 15.265625 0.328125 12.363281 0.179688 10.1875 -0.109375 C 8.007812 -0.410156 6.332031 -1.015625 5.15625 -1.921875 C 3.976562 -2.835938 3.203125 -4.15625 2.828125 -5.875 C 2.460938 -7.59375 2.28125 -9.875 2.28125 -12.71875 L 2.28125 -13.453125 C 2.28125 -16.335938 2.460938 -18.632812 2.828125 -20.34375 C 3.203125 -22.0625 3.976562 -23.375 5.15625 -24.28125 C 6.332031 -25.195312 8.007812 -25.796875 10.1875 -26.078125 C 12.363281 -26.359375 15.265625 -26.5 18.890625 -26.5 L 20.046875 -26.5 C 23.671875 -26.5 26.5625 -26.359375 28.71875 -26.078125 C 30.882812 -25.796875 32.554688 -25.195312 33.734375 -24.28125 C 34.910156 -23.375 35.679688 -22.0625 36.046875 -20.34375 C 36.421875 -18.632812 36.609375 -16.335938 36.609375 -13.453125 L 36.609375 -12.71875 C 36.609375 -9.84375 36.421875 -7.546875 36.046875 -5.828125 C 35.679688 -4.109375 34.910156 -2.789062 33.734375 -1.875 C 32.554688 -0.96875 30.882812 -0.375 28.71875 -0.09375 C 26.5625 0.1875 23.671875 0.328125 20.046875 0.328125 Z M 19.8125 -4.171875 C 21.519531 -4.171875 22.972656 -4.203125 24.171875 -4.265625 C 25.378906 -4.328125 26.394531 -4.457031 27.21875 -4.65625 C 28.039062 -4.863281 28.691406 -5.160156 29.171875 -5.546875 C 29.648438 -5.929688 30.007812 -6.445312 30.25 -7.09375 C 30.5 -7.75 30.660156 -8.546875 30.734375 -9.484375 C 30.816406 -10.429688 30.859375 -11.570312 30.859375 -12.90625 L 30.859375 -13.3125 C 30.859375 -15.320312 30.753906 -16.914062 30.546875 -18.09375 C 30.347656 -19.269531 29.878906 -20.148438 29.140625 -20.734375 C 28.398438 -21.328125 27.296875 -21.703125 25.828125 -21.859375 C 24.359375 -22.015625 22.351562 -22.09375 19.8125 -22.09375 L 19.078125 -22.09375 C 16.535156 -22.09375 14.53125 -22.015625 13.0625 -21.859375 C 11.59375 -21.703125 10.484375 -21.328125 9.734375 -20.734375 C 8.992188 -20.148438 8.523438 -19.269531 8.328125 -18.09375 C 8.128906 -16.914062 8.03125 -15.320312 8.03125 -13.3125 L 8.03125 -12.90625 C 8.03125 -10.894531 8.128906 -9.316406 8.328125 -8.171875 C 8.523438 -7.023438 8.992188 -6.148438 9.734375 -5.546875 C 10.484375 -4.941406 11.59375 -4.5625 13.0625 -4.40625 C 14.53125 -4.25 16.535156 -4.171875 19.078125 -4.171875 Z M 19.8125 -4.171875 "/></g></g></g><g fill="#ffffff" fill-opacity="1"><g transform="translate(288.199842, 285.466973)"><g><path d="M 36.515625 -12.71875 C 36.515625 -10.894531 36.445312 -9.304688 36.3125 -7.953125 C 36.175781 -6.609375 35.90625 -5.460938 35.5 -4.515625 C 35.09375 -3.578125 34.519531 -2.8125 33.78125 -2.21875 C 33.039062 -1.632812 32.054688 -1.179688 30.828125 -0.859375 C 29.609375 -0.535156 28.132812 -0.3125 26.40625 -0.1875 C 24.675781 -0.0625 22.601562 0 20.1875 0 L 2.921875 0 L 2.921875 -26.171875 L 20.1875 -26.171875 C 23.769531 -26.171875 26.632812 -26.03125 28.78125 -25.75 C 30.9375 -25.476562 32.585938 -24.898438 33.734375 -24.015625 C 34.878906 -23.128906 35.628906 -21.851562 35.984375 -20.1875 C 36.335938 -18.519531 36.515625 -16.273438 36.515625 -13.453125 Z M 19.71875 -4.546875 C 22.289062 -4.546875 24.3125 -4.640625 25.78125 -4.828125 C 27.25 -5.015625 28.351562 -5.394531 29.09375 -5.96875 C 29.832031 -6.539062 30.296875 -7.375 30.484375 -8.46875 C 30.671875 -9.5625 30.765625 -11.039062 30.765625 -12.90625 L 30.765625 -13.359375 C 30.765625 -15.285156 30.664062 -16.800781 30.46875 -17.90625 C 30.269531 -19.019531 29.796875 -19.851562 29.046875 -20.40625 C 28.304688 -20.96875 27.203125 -21.328125 25.734375 -21.484375 C 24.265625 -21.640625 22.257812 -21.71875 19.71875 -21.71875 L 8.671875 -21.71875 L 8.671875 -4.546875 Z M 19.71875 -4.546875 "/></g></g></g><g fill="#ffffff" fill-opacity="1"><g transform="translate(331.636553, 285.466973)"><g><path d="M 30.25 0 L 2.921875 0 L 2.921875 -26.171875 L 29.984375 -26.171875 L 29.984375 -21.8125 L 8.625 -21.8125 L 8.625 -15.5 L 28.90625 -15.5 L 28.90625 -11.234375 L 8.625 -11.234375 L 8.625 -4.5 L 30.25 -4.5 Z M 30.25 0 "/></g></g></g></svg>