<svg xmlns="http://www.w3.org/2000/svg" width="500" viewBox="0 0 375 375" height="500" version="1.0"><defs><clipPath id="2a5ae81416"><path d="M279 209h74v33h-74zm0 0"/></clipPath><clipPath id="f8d6bbaf6c"><path d="M259.082 227.066l89.934-37.656 18.539 44.278-89.938 37.656zm0 0"/></clipPath><clipPath id="dac3f91c63"><path d="M277.563 271.21l89.937-37.65-18.54-44.278-89.933 37.656zm0 0"/></clipPath><clipPath id="b9e179235a"><path d="M277.563 271.21l89.937-37.65-18.54-44.278-89.933 37.656zm0 0"/></clipPath><clipPath id="0570ebd388"><path d="M262 224h23v23h-23zm0 0"/></clipPath><clipPath id="8389342879"><path d="M259.082 227.066l89.934-37.656 18.539 44.278-89.938 37.656zm0 0"/></clipPath><clipPath id="b29e3267ea"><path d="M277.563 271.21l89.937-37.65-18.54-44.278-89.933 37.656zm0 0"/></clipPath><clipPath id="3febe8aaca"><path d="M277.563 271.21l89.937-37.65-18.54-44.278-89.933 37.656zm0 0"/></clipPath><clipPath id="c04d0240d6"><path d="M278 200h83v36h-83zm0 0"/></clipPath><clipPath id="2436c08764"><path d="M259.082 227.066l89.934-37.656 18.539 44.278-89.938 37.656zm0 0"/></clipPath><clipPath id="692af85cbe"><path d="M277.563 271.21l89.937-37.65-18.54-44.278-89.933 37.656zm0 0"/></clipPath><clipPath id="b538a33580"><path d="M277.563 271.21l89.937-37.65-18.54-44.278-89.933 37.656zm0 0"/></clipPath></defs><g clip-path="url(#2a5ae81416)"><g clip-path="url(#f8d6bbaf6c)"><g clip-path="url(#dac3f91c63)"><g clip-path="url(#b9e179235a)"><path fill="#fff" d="M279.438 233.68c5.914-6.332 13.128-11.618 19.878-15.305 9.477-5.172 20.426-8.727 30.68-8.68 7.492.043 15.68 2.13 20.016 8.453a15.507 15.507 0 011.531 2.813c2.668 6.371 1.113 13.555-2.215 20.137 1.426-5.047 1.574-10.227-.414-14.97a17.653 17.653 0 00-1.707-3.14c-4.629-6.75-13.152-9.074-21.187-9.12-10.356-.052-21.383 3.5-30.957 8.737-5.352 2.918-10.762 6.665-15.625 11.075" fill-rule="evenodd"/></g></g></g></g><g clip-path="url(#0570ebd388)"><g clip-path="url(#8389342879)"><g clip-path="url(#b29e3267ea)"><g clip-path="url(#3febe8aaca)"><path fill="#fff" d="M272.336 246.613l.086.004.086.012c1.07-10.063 2.828-10.617 12.222-9.59l.02-.164c-9.398-1.031-10.996-1.941-9.922-12.008l-.172-.023c-1.074 10.066-2.828 10.617-12.222 9.594l-.02.167c9.399 1.028 10.992 1.938 9.922 12.008" fill-rule="evenodd"/></g></g></g></g><g clip-path="url(#c04d0240d6)"><g clip-path="url(#2436c08764)"><g clip-path="url(#692af85cbe)"><g clip-path="url(#b538a33580)"><path fill="#fff" d="M278.45 229.172c6.382-7.25 14.234-13.371 21.636-17.703 10.379-6.082 22.46-10.403 33.887-10.688 8.347-.199 17.535 1.852 22.574 8.75a17.645 17.645 0 011.797 3.086c3.176 7.008 1.687 15.063-1.805 22.5 1.422-5.668 1.418-11.441-.957-16.66a19.402 19.402 0 00-2-3.437c-5.375-7.364-14.95-9.676-23.898-9.461-11.543.285-23.704 4.605-34.196 10.754-5.867 3.433-11.77 7.789-17.039 12.859" fill-rule="evenodd"/></g></g></g></g><path fill="#fff" d="M191.074 163.05c-26.035 9.477-50.062 16.485-67.465 20.04-16.015 3.258-26.41 3.613-27.629.27-1.171-3.223 6.403-9.305 19.81-16.708a3.704 3.704 0 001.886-3.734l-.012-.074c-.34-2.516-3.027-3.969-5.305-2.852-34.582 16.938-56.011 32.406-53.199 40.125 2.88 7.906 30.488 5.696 69.348-4.156a3.694 3.694 0 013.808 1.27c18.344 23.132 50.094 33.07 79.36 22.417 36.988-13.464 45.633-40.43 46.488-60.378.496-11.5-3.27-19.45-67.09 3.78zm0 0"/><path fill="#fff" d="M315.953 106.652c-2.937-8.074-31.613-5.601-71.715 4.766-18.09-24.473-50.754-35.238-80.8-24.3-31.02 11.288-41.801 32.933-45.141 50.624-2.32 12.313-.39 23.336 63.586.051 25.629-9.328 49.304-16.262 66.64-19.863 16.473-3.426 27.215-3.848 28.454-.446 1.082 2.98-5.317 8.407-16.907 15.075-2.566 1.476-3.863 4.441-3.289 7.347.008.047.016.094.028.14.867 4.47 5.804 6.829 9.87 4.79 32.27-16.172 51.977-30.766 49.274-38.184zM56.02 285.467h-5.61v-21.203h-.14l-12.578 21.203h-4.547l-12.672-21.203h-.14v21.203h-5.61v-26.172h8.719l12.03 20.234h.095l11.875-20.234h8.578zm44.04 0h-6.438l-2.797-5.25H72.778l-2.78 5.25H63.73l14.657-26.172h7.203zm-11.266-9.328L82.06 263.42h-.282l-6.812 12.719zm36.943-3.485c1.32 0 2.41-.054 3.266-.171.851-.125 1.508-.344 1.968-.657a2.31 2.31 0 00.954-1.28c.164-.54.25-1.212.25-2.017v-.609c0-.926-.079-1.676-.235-2.25a2.137 2.137 0 00-.937-1.312c-.48-.313-1.172-.516-2.078-.61-.899-.094-2.07-.14-3.516-.14h-11.938v9.046zm12.203 12.813h-5.719v-2.5c0-1.332-.085-2.395-.25-3.188-.167-.789-.53-1.398-1.093-1.828-.555-.437-1.371-.722-2.453-.859-1.086-.133-2.54-.203-4.36-.203h-10.594v8.578h-5.703v-26.172h19.813c2.07 0 3.781.117 5.125.344 1.351.23 2.422.633 3.203 1.203.789.574 1.332 1.367 1.625 2.375.3 1 .453 2.262.453 3.781v.969c0 2.043-.39 3.559-1.172 4.547-.773.992-1.945 1.656-3.515 2v.187c.925.157 1.691.352 2.296.578.602.23 1.07.586 1.407 1.063.343.48.582 1.102.718 1.86.145.761.22 1.745.22 2.952zm40.546-7.563c0 1.606-.18 2.918-.531 3.938-.356 1.023-1.043 1.828-2.063 2.422-1.023.586-2.469.984-4.344 1.203-1.867.219-4.328.328-7.39.328h-1.25c-3.406 0-6.11-.094-8.11-.281-1.992-.188-3.507-.567-4.546-1.14-1.032-.571-1.7-1.376-2-2.407-.293-1.04-.438-2.395-.438-4.063v-.796h5.672v.609c0 .836.098 1.5.297 2 .195.492.613.871 1.25 1.14.633.262 1.547.434 2.734.516 1.196.074 2.785.11 4.766.11h1.015c2.07 0 3.727-.047 4.97-.141 1.238-.094 2.179-.27 2.827-.531.645-.27 1.063-.617 1.25-1.047.188-.438.282-.992.282-1.672v-.281c0-.739-.09-1.332-.266-1.782-.168-.445-.574-.8-1.219-1.062-.648-.27-1.617-.453-2.906-.547-1.281-.094-3.04-.14-5.266-.14-3.43 0-6.132-.098-8.109-.297-1.98-.196-3.48-.555-4.5-1.079-1.023-.53-1.672-1.273-1.953-2.234-.281-.969-.422-2.223-.422-3.766v-.328c0-1.539.164-2.804.5-3.797.344-.988 1.004-1.757 1.984-2.312.977-.563 2.348-.953 4.11-1.172 1.758-.219 4.047-.328 6.86-.328h1.312c3.27 0 5.879.121 7.828.36 1.957.23 3.445.632 4.468 1.202 1.02.575 1.676 1.368 1.97 2.375.288 1 .437 2.258.437 3.766v.703h-5.657v-.422c0-.77-.09-1.398-.265-1.89-.168-.5-.54-.89-1.11-1.172-.574-.281-1.402-.469-2.484-.563-1.086-.093-2.523-.14-4.312-.14h-1.016c-2.012 0-3.617.043-4.813.125-1.187.074-2.093.234-2.718.484-.617.25-1.016.602-1.203 1.047-.188.45-.282 1.027-.282 1.734v.282c0 .648.078 1.171.235 1.578.156.406.554.726 1.203.953.656.23 1.644.387 2.969.469 1.332.074 3.191.109 5.578.109 3.25 0 5.836.094 7.765.281 1.938.188 3.414.555 4.438 1.094 1.02.543 1.68 1.32 1.984 2.328.313 1 .469 2.32.469 3.953zm43.121 7.891c-3.5 0-6.324-.148-8.469-.437-2.148-.301-3.808-.914-4.984-1.844-1.18-.926-1.961-2.238-2.344-3.938-.387-1.707-.578-3.984-.578-6.828v-.734c0-1.883.07-3.516.219-4.89.156-1.384.445-2.555.875-3.516.437-.957 1.035-1.739 1.797-2.344.757-.602 1.742-1.07 2.953-1.406 1.207-.344 2.675-.579 4.406-.704 1.726-.125 3.77-.187 6.125-.187h1.156c3.188 0 5.742.121 7.672.36 1.938.23 3.43.648 4.484 1.25 1.051.605 1.75 1.449 2.094 2.53.344 1.075.516 2.45.516 4.126v1.015h-5.578v-.515c0-.864-.086-1.582-.25-2.157-.168-.57-.57-1.007-1.203-1.312-.637-.313-1.575-.531-2.813-.656-1.242-.125-2.945-.188-5.11-.188h-.78c-2.481 0-4.438.078-5.876.234-1.437.157-2.523.532-3.25 1.125-.73.586-1.195 1.461-1.39 2.625-.2 1.157-.297 2.743-.297 4.75v.454c0 2.011.098 3.59.297 4.734.195 1.148.66 2.008 1.39 2.578.727.574 1.813.938 3.25 1.094 1.438.156 3.395.234 5.875.234h.782c2.195 0 3.937-.05 5.218-.156 1.29-.113 2.266-.336 2.922-.672.664-.344 1.094-.805 1.282-1.39.187-.594.28-1.383.28-2.376v-.421h5.516v1.203c0 1.648-.187 3.008-.562 4.078-.367 1.062-1.09 1.914-2.172 2.547-1.086.625-2.61 1.074-4.578 1.343-1.961.258-4.531.391-7.719.391zm41.953 0c-3.624 0-6.526-.148-8.702-.437-2.18-.301-3.856-.907-5.031-1.813-1.18-.914-1.954-2.234-2.329-3.953-.367-1.719-.546-4-.546-6.844v-.734c0-2.883.18-5.18.546-6.89.375-1.72 1.149-3.032 2.329-3.938 1.175-.914 2.851-1.516 5.03-1.797 2.177-.281 5.079-.422 8.704-.422h1.156c3.625 0 6.516.14 8.672.422 2.164.281 3.836.883 5.016 1.797 1.175.906 1.945 2.218 2.312 3.937.375 1.711.563 4.008.563 6.89v.735c0 2.875-.188 5.172-.563 6.89-.367 1.72-1.137 3.04-2.312 3.954-1.18.906-2.852 1.5-5.016 1.781-2.156.281-5.047.422-8.672.422zm.923-4.5c1.707 0 3.16-.031 4.36-.094 1.206-.062 2.222-.191 3.046-.39.82-.207 1.473-.504 1.953-.89.477-.384.836-.9 1.078-1.548.25-.656.41-1.453.485-2.39.082-.946.125-2.086.125-3.422v-.407c0-2.007-.106-3.601-.313-4.78-.199-1.177-.668-2.055-1.406-2.641-.742-.594-1.844-.97-3.313-1.125-1.468-.157-3.476-.235-6.015-.235h-.735c-2.543 0-4.546.078-6.015.235-1.469.156-2.578.53-3.328 1.125-.742.586-1.211 1.464-1.407 2.64-.199 1.18-.296 2.774-.296 4.781v.407c0 2.011.097 3.59.296 4.734.196 1.149.665 2.024 1.407 2.625.75.606 1.86.984 3.328 1.14 1.469.157 3.472.235 6.015.235zm60.232-8.547c0 1.824-.07 3.414-.203 4.766-.136 1.344-.406 2.492-.812 3.437-.406.938-.98 1.703-1.719 2.297-.742.586-1.726 1.04-2.953 1.36-1.219.324-2.695.546-4.422.671-1.73.125-3.805.188-6.219.188h-17.265v-26.172h17.265c3.582 0 6.446.14 8.594.422 2.156.273 3.805.852 4.953 1.734 1.145.887 1.895 2.164 2.25 3.828.352 1.668.531 3.915.531 6.735zm-16.796 8.172c2.57 0 4.593-.094 6.062-.281 1.469-.188 2.57-.567 3.313-1.14.738-.571 1.203-1.407 1.39-2.5.188-1.095.281-2.571.281-4.438v-.453c0-1.926-.101-3.442-.296-4.547-.2-1.114-.672-1.946-1.422-2.5-.742-.563-1.844-.922-3.313-1.078-1.469-.157-3.476-.235-6.015-.235h-11.047v17.172zm53.968 4.547h-27.329v-26.172h27.063v4.36h-21.36v6.312h20.282v4.266h-20.281v6.734h21.625zm0 0"/></svg>